<mxfile host="app.diagrams.net" modified="2022-04-17T14:03:32.866Z" agent="5.0 (Windows NT 10.0; Win64; x64) AppleWebKit/537.36 (KHTML, like Gecko) Chrome/100.0.4896.75 Safari/537.36 Edg/100.0.1185.39" etag="pwnZkbzwMp3DJQsyL0Wy" version="17.4.5" type="github">
  <diagram id="R2lEEEUBdFMjLlhIrx00" name="Page-1">
    <mxGraphModel dx="1374" dy="1894" grid="1" gridSize="10" guides="1" tooltips="1" connect="1" arrows="1" fold="1" page="1" pageScale="1" pageWidth="850" pageHeight="1100" math="0" shadow="0" extFonts="Permanent Marker^https://fonts.googleapis.com/css?family=Permanent+Marker">
      <root>
        <mxCell id="0" />
        <mxCell id="1" parent="0" />
        <mxCell id="gE8sNK6Nt0lFENl2PymD-4" value="" style="edgeStyle=orthogonalEdgeStyle;rounded=0;orthogonalLoop=1;jettySize=auto;html=1;" edge="1" parent="1" source="gE8sNK6Nt0lFENl2PymD-1" target="gE8sNK6Nt0lFENl2PymD-3">
          <mxGeometry relative="1" as="geometry" />
        </mxCell>
        <mxCell id="gE8sNK6Nt0lFENl2PymD-6" value="" style="edgeStyle=orthogonalEdgeStyle;rounded=0;orthogonalLoop=1;jettySize=auto;html=1;entryX=0;entryY=0.5;entryDx=0;entryDy=0;" edge="1" parent="1" source="gE8sNK6Nt0lFENl2PymD-1" target="gE8sNK6Nt0lFENl2PymD-5">
          <mxGeometry relative="1" as="geometry">
            <Array as="points">
              <mxPoint x="80" y="50" />
              <mxPoint x="80" y="130" />
            </Array>
          </mxGeometry>
        </mxCell>
        <mxCell id="gE8sNK6Nt0lFENl2PymD-8" value="" style="edgeStyle=orthogonalEdgeStyle;rounded=0;orthogonalLoop=1;jettySize=auto;html=1;" edge="1" parent="1" source="gE8sNK6Nt0lFENl2PymD-1" target="gE8sNK6Nt0lFENl2PymD-7">
          <mxGeometry relative="1" as="geometry">
            <Array as="points">
              <mxPoint x="80" y="50" />
              <mxPoint x="80" y="210" />
            </Array>
          </mxGeometry>
        </mxCell>
        <mxCell id="gE8sNK6Nt0lFENl2PymD-10" value="" style="edgeStyle=orthogonalEdgeStyle;rounded=0;orthogonalLoop=1;jettySize=auto;html=1;" edge="1" parent="1" source="gE8sNK6Nt0lFENl2PymD-1" target="gE8sNK6Nt0lFENl2PymD-9">
          <mxGeometry relative="1" as="geometry">
            <Array as="points">
              <mxPoint x="80" y="50" />
              <mxPoint x="80" y="290" />
            </Array>
          </mxGeometry>
        </mxCell>
        <mxCell id="gE8sNK6Nt0lFENl2PymD-12" value="" style="edgeStyle=orthogonalEdgeStyle;rounded=0;orthogonalLoop=1;jettySize=auto;html=1;" edge="1" parent="1" source="gE8sNK6Nt0lFENl2PymD-1" target="gE8sNK6Nt0lFENl2PymD-11">
          <mxGeometry relative="1" as="geometry">
            <Array as="points">
              <mxPoint x="80" y="50" />
              <mxPoint x="80" y="370" />
            </Array>
          </mxGeometry>
        </mxCell>
        <mxCell id="gE8sNK6Nt0lFENl2PymD-24" style="edgeStyle=orthogonalEdgeStyle;rounded=0;orthogonalLoop=1;jettySize=auto;html=1;entryX=0;entryY=0.5;entryDx=0;entryDy=0;" edge="1" parent="1" source="gE8sNK6Nt0lFENl2PymD-1" target="gE8sNK6Nt0lFENl2PymD-22">
          <mxGeometry relative="1" as="geometry">
            <Array as="points">
              <mxPoint x="45" y="10" />
              <mxPoint x="258" y="10" />
              <mxPoint x="258" y="30" />
            </Array>
          </mxGeometry>
        </mxCell>
        <mxCell id="gE8sNK6Nt0lFENl2PymD-26" value="" style="edgeStyle=orthogonalEdgeStyle;rounded=0;orthogonalLoop=1;jettySize=auto;html=1;" edge="1" parent="1" source="gE8sNK6Nt0lFENl2PymD-1" target="gE8sNK6Nt0lFENl2PymD-25">
          <mxGeometry relative="1" as="geometry">
            <Array as="points">
              <mxPoint x="80" y="50" />
              <mxPoint x="80" y="450" />
            </Array>
          </mxGeometry>
        </mxCell>
        <mxCell id="gE8sNK6Nt0lFENl2PymD-28" value="" style="edgeStyle=orthogonalEdgeStyle;rounded=0;orthogonalLoop=1;jettySize=auto;html=1;" edge="1" parent="1" source="gE8sNK6Nt0lFENl2PymD-1" target="gE8sNK6Nt0lFENl2PymD-27">
          <mxGeometry relative="1" as="geometry">
            <Array as="points">
              <mxPoint x="80" y="50" />
              <mxPoint x="80" y="530" />
            </Array>
          </mxGeometry>
        </mxCell>
        <mxCell id="gE8sNK6Nt0lFENl2PymD-1" value="教师" style="shape=umlActor;verticalLabelPosition=bottom;verticalAlign=top;html=1;outlineConnect=0;" vertex="1" parent="1">
          <mxGeometry x="30" y="20" width="30" height="60" as="geometry" />
        </mxCell>
        <mxCell id="gE8sNK6Nt0lFENl2PymD-3" value="&lt;br&gt;教材信息维护" style="ellipse;whiteSpace=wrap;html=1;verticalAlign=top;align=center;" vertex="1" parent="1">
          <mxGeometry x="95" y="20" width="120" height="60" as="geometry" />
        </mxCell>
        <mxCell id="gE8sNK6Nt0lFENl2PymD-5" value="&lt;br&gt;查询现有教材及库存信息" style="ellipse;whiteSpace=wrap;html=1;verticalAlign=top;" vertex="1" parent="1">
          <mxGeometry x="95" y="100" width="120" height="60" as="geometry" />
        </mxCell>
        <mxCell id="gE8sNK6Nt0lFENl2PymD-7" value="&lt;br&gt;出版社信息维护" style="ellipse;whiteSpace=wrap;html=1;verticalAlign=top;" vertex="1" parent="1">
          <mxGeometry x="95" y="180" width="120" height="60" as="geometry" />
        </mxCell>
        <mxCell id="gE8sNK6Nt0lFENl2PymD-9" value="&lt;br&gt;查询现有出版社信息" style="ellipse;whiteSpace=wrap;html=1;verticalAlign=top;" vertex="1" parent="1">
          <mxGeometry x="95" y="260" width="120" height="60" as="geometry" />
        </mxCell>
        <mxCell id="gE8sNK6Nt0lFENl2PymD-11" value="&lt;br&gt;学院独立申请购买教材" style="ellipse;whiteSpace=wrap;html=1;verticalAlign=top;" vertex="1" parent="1">
          <mxGeometry x="95" y="340" width="120" height="60" as="geometry" />
        </mxCell>
        <mxCell id="gE8sNK6Nt0lFENl2PymD-15" value="" style="edgeStyle=orthogonalEdgeStyle;rounded=0;orthogonalLoop=1;jettySize=auto;html=1;" edge="1" parent="1" source="gE8sNK6Nt0lFENl2PymD-13" target="gE8sNK6Nt0lFENl2PymD-14">
          <mxGeometry relative="1" as="geometry" />
        </mxCell>
        <mxCell id="gE8sNK6Nt0lFENl2PymD-17" value="" style="edgeStyle=orthogonalEdgeStyle;rounded=0;orthogonalLoop=1;jettySize=auto;html=1;" edge="1" parent="1" source="gE8sNK6Nt0lFENl2PymD-13" target="gE8sNK6Nt0lFENl2PymD-16">
          <mxGeometry relative="1" as="geometry">
            <Array as="points">
              <mxPoint x="590" y="270" />
              <mxPoint x="590" y="350" />
            </Array>
          </mxGeometry>
        </mxCell>
        <mxCell id="gE8sNK6Nt0lFENl2PymD-19" value="" style="edgeStyle=orthogonalEdgeStyle;rounded=0;orthogonalLoop=1;jettySize=auto;html=1;entryX=1;entryY=0.5;entryDx=0;entryDy=0;" edge="1" parent="1" source="gE8sNK6Nt0lFENl2PymD-13" target="gE8sNK6Nt0lFENl2PymD-18">
          <mxGeometry relative="1" as="geometry">
            <Array as="points">
              <mxPoint x="590" y="270" />
              <mxPoint x="590" y="190" />
            </Array>
          </mxGeometry>
        </mxCell>
        <mxCell id="gE8sNK6Nt0lFENl2PymD-21" value="" style="edgeStyle=orthogonalEdgeStyle;rounded=0;orthogonalLoop=1;jettySize=auto;html=1;" edge="1" parent="1" source="gE8sNK6Nt0lFENl2PymD-13" target="gE8sNK6Nt0lFENl2PymD-20">
          <mxGeometry relative="1" as="geometry">
            <Array as="points">
              <mxPoint x="590" y="270" />
              <mxPoint x="590" y="110" />
            </Array>
          </mxGeometry>
        </mxCell>
        <mxCell id="gE8sNK6Nt0lFENl2PymD-23" value="" style="edgeStyle=orthogonalEdgeStyle;rounded=0;orthogonalLoop=1;jettySize=auto;html=1;" edge="1" parent="1" source="gE8sNK6Nt0lFENl2PymD-13" target="gE8sNK6Nt0lFENl2PymD-22">
          <mxGeometry relative="1" as="geometry">
            <Array as="points">
              <mxPoint x="590" y="270" />
              <mxPoint x="590" y="30" />
            </Array>
          </mxGeometry>
        </mxCell>
        <mxCell id="gE8sNK6Nt0lFENl2PymD-29" style="edgeStyle=orthogonalEdgeStyle;rounded=0;orthogonalLoop=1;jettySize=auto;html=1;entryX=1;entryY=0.5;entryDx=0;entryDy=0;" edge="1" parent="1" source="gE8sNK6Nt0lFENl2PymD-13" target="gE8sNK6Nt0lFENl2PymD-27">
          <mxGeometry relative="1" as="geometry">
            <Array as="points">
              <mxPoint x="590" y="270" />
              <mxPoint x="590" y="530" />
            </Array>
          </mxGeometry>
        </mxCell>
        <mxCell id="gE8sNK6Nt0lFENl2PymD-30" style="edgeStyle=orthogonalEdgeStyle;rounded=0;orthogonalLoop=1;jettySize=auto;html=1;entryX=1;entryY=0.5;entryDx=0;entryDy=0;" edge="1" parent="1" source="gE8sNK6Nt0lFENl2PymD-13" target="gE8sNK6Nt0lFENl2PymD-25">
          <mxGeometry relative="1" as="geometry">
            <Array as="points">
              <mxPoint x="590" y="270" />
              <mxPoint x="590" y="450" />
            </Array>
          </mxGeometry>
        </mxCell>
        <mxCell id="gE8sNK6Nt0lFENl2PymD-13" value="系统管理员" style="shape=umlActor;verticalLabelPosition=bottom;verticalAlign=top;html=1;outlineConnect=0;" vertex="1" parent="1">
          <mxGeometry x="610" y="240" width="30" height="60" as="geometry" />
        </mxCell>
        <mxCell id="gE8sNK6Nt0lFENl2PymD-14" value="&lt;br&gt;通知公告管理" style="ellipse;whiteSpace=wrap;html=1;verticalAlign=top;" vertex="1" parent="1">
          <mxGeometry x="455" y="240" width="120" height="60" as="geometry" />
        </mxCell>
        <mxCell id="gE8sNK6Nt0lFENl2PymD-16" value="&lt;br&gt;审核教师" style="ellipse;whiteSpace=wrap;html=1;verticalAlign=top;" vertex="1" parent="1">
          <mxGeometry x="455" y="320" width="120" height="60" as="geometry" />
        </mxCell>
        <mxCell id="gE8sNK6Nt0lFENl2PymD-18" value="&lt;br&gt;增加、删除。修改教师" style="ellipse;whiteSpace=wrap;html=1;verticalAlign=top;" vertex="1" parent="1">
          <mxGeometry x="455" y="160" width="120" height="60" as="geometry" />
        </mxCell>
        <mxCell id="gE8sNK6Nt0lFENl2PymD-20" value="&lt;br&gt;增加、删除、修改管理员" style="ellipse;whiteSpace=wrap;html=1;verticalAlign=top;" vertex="1" parent="1">
          <mxGeometry x="455" y="80" width="120" height="60" as="geometry" />
        </mxCell>
        <mxCell id="gE8sNK6Nt0lFENl2PymD-22" value="&lt;br&gt;教材征订周期、征订状态管理" style="ellipse;whiteSpace=wrap;html=1;verticalAlign=top;" vertex="1" parent="1">
          <mxGeometry x="455" width="120" height="60" as="geometry" />
        </mxCell>
        <mxCell id="gE8sNK6Nt0lFENl2PymD-25" value="&lt;br&gt;查询现有教材订购信息" style="ellipse;whiteSpace=wrap;html=1;verticalAlign=top;" vertex="1" parent="1">
          <mxGeometry x="95" y="420" width="120" height="60" as="geometry" />
        </mxCell>
        <mxCell id="gE8sNK6Nt0lFENl2PymD-27" value="&lt;br&gt;教材订购的信息管理统计" style="ellipse;whiteSpace=wrap;html=1;verticalAlign=top;" vertex="1" parent="1">
          <mxGeometry x="95" y="500" width="120" height="60" as="geometry" />
        </mxCell>
        <mxCell id="gE8sNK6Nt0lFENl2PymD-32" value="&lt;br&gt;&lt;br&gt;&lt;br&gt;&lt;br&gt;&lt;br&gt;&lt;br&gt;&lt;br&gt;&lt;br&gt;&lt;br&gt;&lt;br&gt;&lt;br&gt;&lt;br&gt;&lt;br&gt;&lt;br&gt;&lt;br&gt;&lt;br&gt;&lt;br&gt;&lt;br&gt;&lt;br&gt;&lt;br&gt;&lt;br&gt;&lt;br&gt;&lt;br&gt;&lt;br&gt;&lt;br&gt;&lt;br&gt;&lt;br&gt;&lt;br&gt;&lt;br&gt;&lt;br&gt;&lt;br&gt;&lt;br&gt;&lt;br&gt;&lt;br&gt;&lt;br&gt;&lt;br&gt;&lt;br&gt;&lt;br&gt;&lt;br&gt;&lt;br&gt;&lt;br&gt;高效教材管理系统" style="rounded=0;whiteSpace=wrap;html=1;fillColor=none;" vertex="1" parent="1">
          <mxGeometry x="70" y="-10" width="530" height="610" as="geometry" />
        </mxCell>
      </root>
    </mxGraphModel>
  </diagram>
</mxfile>
